HIERARCHY
ROOT Hips
{
	OFFSET 0.0000 0.0000 0.0000
	CHANNELS 6 Xposition Yposition Zposition Zrotation Xrotation Yrotation
	JOINT Spine1
	{
		OFFSET -0.0137 5.0038 -0.0537
		CHANNELS 3 Zrotation Xrotation Yrotation
		JOINT Spine2
		{
			OFFSET -0.0000 7.1253 -0.0298
			CHANNELS 3 Zrotation Xrotation Yrotation
			JOINT Chest
			{
				OFFSET -0.0000 7.5501 -0.8160
				CHANNELS 3 Zrotation Xrotation Yrotation
				JOINT Neck1
				{
					OFFSET -0.1817 26.3113 -0.5533
					CHANNELS 3 Zrotation Xrotation Yrotation
					JOINT Neck2
					{
						OFFSET -0.0000 7.7094 2.3026
						CHANNELS 3 Zrotation Xrotation Yrotation
						JOINT Head
						{
							OFFSET -0.0000 6.1289 1.9537
							CHANNELS 3 Zrotation Xrotation Yrotation
							JOINT Jaw
							{
								OFFSET 0.0026 0.4756 3.0949
								CHANNELS 3 Zrotation Xrotation Yrotation
								End Site
								{
									OFFSET 0.0 1.0 0.0
								}
							}
							JOINT LeftEye
							{
								OFFSET 3.2064 5.3802 7.5869
								CHANNELS 3 Zrotation Xrotation Yrotation
								End Site
								{
									OFFSET 0.0 1.0 0.0
								}
							}
							JOINT RightEye
							{
								OFFSET -3.2224 5.3619 7.5582
								CHANNELS 3 Zrotation Xrotation Yrotation
								End Site
								{
									OFFSET 0.0 1.0 0.0
								}
							}
						}
					}
				}
				JOINT LeftShoulder
				{
					OFFSET 1.6217 23.2372 5.1134
					CHANNELS 3 Zrotation Xrotation Yrotation
					JOINT LeftArm
					{
						OFFSET 14.9198 0.0000 -5.5023
						CHANNELS 3 Zrotation Xrotation Yrotation
						JOINT LeftForeArm
						{
							OFFSET 28.7393 0.0000 -0.0026
							CHANNELS 3 Zrotation Xrotation Yrotation
							JOINT LeftHand
							{
								OFFSET 27.0940 -0.0000 0.0026
								CHANNELS 3 Zrotation Xrotation Yrotation
								JOINT LeftHandThumbEnd
								{
									OFFSET 12.2686 -3.2202 4.8331
									CHANNELS 3 Zrotation Xrotation Yrotation
									End Site
									{
										OFFSET 0.0 1.0 0.0
									}
								}
								JOINT LeftHandMiddleEnd
								{
									OFFSET 19.0120 -0.3129 -0.0340
									CHANNELS 3 Zrotation Xrotation Yrotation
									End Site
									{
										OFFSET 0.0 1.0 0.0
									}
								}
							}
						}
					}
				}
				JOINT RightShoulder
				{
					OFFSET -1.3801 23.1803 5.2142
					CHANNELS 3 Zrotation Xrotation Yrotation
					JOINT RightArm
					{
						OFFSET -15.0372 0.0000 -5.5456
						CHANNELS 3 Zrotation Xrotation Yrotation
						JOINT RightForeArm
						{
							OFFSET -28.7366 0.0000 -0.0026
							CHANNELS 3 Zrotation Xrotation Yrotation
							JOINT RightHand
							{
								OFFSET -27.1336 -0.0000 0.0026
								CHANNELS 3 Zrotation Xrotation Yrotation
								JOINT RightHandThumbEnd
								{
									OFFSET -12.2642 -3.2115 4.8040
									CHANNELS 3 Zrotation Xrotation Yrotation
									End Site
									{
										OFFSET 0.0 1.0 0.0
									}
								}
								JOINT RightHandMiddleEnd
								{
									OFFSET -19.0006 -0.3066 -0.0316
									CHANNELS 3 Zrotation Xrotation Yrotation
									End Site
									{
										OFFSET 0.0 1.0 0.0
									}
								}
							}
						}
					}
				}
			}
		}
	}
	JOINT LeftLeg
	{
		OFFSET 10.0432 -8.4345 2.5957
		CHANNELS 3 Zrotation Xrotation Yrotation
		JOINT LeftShin
		{
			OFFSET -0.0000 -43.2218 -0.8029
			CHANNELS 3 Zrotation Xrotation Yrotation
			JOINT LeftFoot
			{
				OFFSET 0.0000 -42.1551 -3.4815
				CHANNELS 3 Zrotation Xrotation Yrotation
				JOINT LeftToeBase
				{
					OFFSET 0.0000 -5.0595 13.2315
					CHANNELS 3 Zrotation Xrotation Yrotation
					End Site
					{
						OFFSET 0.0 1.0 0.0
					}
				}
			}
		}
	}
	JOINT RightLeg
	{
		OFFSET -10.0473 -8.2953 2.6203
		CHANNELS 3 Zrotation Xrotation Yrotation
		JOINT RightShin
		{
			OFFSET 0.0000 -43.3622 -0.8056
			CHANNELS 3 Zrotation Xrotation Yrotation
			JOINT RightFoot
			{
				OFFSET 0.0000 -42.1174 -3.4784
				CHANNELS 3 Zrotation Xrotation Yrotation
				JOINT RightToeBase
				{
					OFFSET -0.0000 -5.0796 13.2842
					CHANNELS 3 Zrotation Xrotation Yrotation
					End Site
					{
						OFFSET 0.0 1.0 0.0
					}
				}
			}
		}
	}
}
MOTION
Frames: 6
Frame Time: 0.033333
-5.3403 85.2530 2.3925 4.3037 5.5194 -0.1142 0.3318 8.2518 -0.4546 -0.7184 -1.3554 -1.3271 0.9768 12.3076 -3.0082 20.9310 9.9892 -3.9118 -3.2045 -4.0081 -10.0760 6.2017 -7.7249 -15.3005 -0.0074 -0.0466 0.0764 0.7897 -10.7011 -3.8082 -0.7769 -10.7019 3.9295 3.6904 7.2302 -10.6571 -40.0733 -17.2402 -44.9067 -0.6031 0.2224 -129.5730 4.1072 4.8167 -8.5948 -15.9808 10.6853 15.8420 -60.1173 1.8388 2.2050 18.5815 8.0785 16.7410 59.0533 -30.0227 -32.6218 -0.3096 -0.0088 99.9897 -41.8003 -13.7652 1.1850 14.8274 7.6002 -16.0792 49.9962 -3.4415 -5.3329 20.4954 -29.7195 23.5442 -0.8736 46.8513 -1.4695 -29.3047 -17.1416 1.6987 1.6475 -2.0679 -1.8866 -13.1490 -57.0338 -24.4499 0.6548 56.3908 0.9589 8.6470 -3.9887 -15.5245 -1.4212 0.7078 1.0961
-5.2359 84.9678 2.4301 4.2832 5.2448 -0.0298 0.3779 8.2539 -0.4045 -0.6951 -1.3880 -1.2553 1.0403 12.4157 -2.9138 20.9684 10.0794 -3.8243 -3.2582 -4.0166 -10.1390 6.2168 -7.8064 -15.2760 -0.0009 -0.0585 0.0552 0.8052 -10.7045 -3.8364 -0.7790 -10.7076 3.9139 3.5762 7.2384 -10.4863 -40.0943 -17.1611 -45.0619 -0.3971 0.1363 -129.5594 4.2291 4.3840 -8.6578 -15.8420 10.7345 15.8928 -60.2620 1.8354 2.3007 18.7339 8.3270 16.7131 59.4074 -30.3840 -32.7919 -0.3473 -0.0262 100.0271 -42.0782 -13.9715 2.1148 14.9332 7.5007 -16.0302 50.0730 -3.4832 -5.2397 20.7148 -29.9809 23.3660 -0.9276 47.7951 -1.5112 -29.3910 -17.9042 1.5272 1.6434 -1.9096 -1.8697 -13.7509 -57.1311 -23.9671 0.5698 56.9404 0.8538 8.9017 -3.9897 -15.6484 -1.4299 0.7290 1.1371
-5.0266 84.7001 2.4364 4.2424 4.8998 -0.0471 0.4236 8.2352 -0.3432 -0.6724 -1.4169 -1.2070 1.0986 12.6075 -2.7843 20.9592 10.2444 -3.7435 -3.3373 -4.0469 -10.1611 6.2352 -7.8319 -15.2703 -0.0135 -0.0602 0.0747 0.7938 -10.7209 -3.8180 -0.7924 -10.7197 3.9376 3.3397 7.2607 -10.2745 -40.3248 -16.9587 -45.1279 -0.1627 0.0773 -129.6382 4.2726 4.1527 -8.7805 -15.7705 10.7092 15.8681 -60.3060 1.7846 2.3082 18.9150 8.5367 16.8648 59.8140 -30.7937 -33.1063 -0.3572 -0.0436 99.9960 -42.5757 -14.5353 3.1535 15.0330 7.3737 -15.9174 50.0151 -3.4965 -5.1393 20.8751 -30.1190 23.2298 -0.9469 48.7913 -1.5319 -29.3048 -18.6694 1.5550 1.6462 -1.8153 -1.8741 -14.4086 -57.1452 -23.4494 0.5272 57.3817 0.7962 9.1076 -3.8581 -15.6627 -1.4320 0.7535 1.1603
-4.7552 84.5221 2.4058 4.1600 4.5470 -0.1831 0.4765 8.2130 -0.2929 -0.6529 -1.4074 -1.1249 1.1807 12.7861 -2.6779 20.8372 10.4316 -3.6801 -3.3775 -4.0749 -10.1483 6.2682 -7.8882 -15.2561 -0.0240 -0.0626 0.0919 0.7725 -10.7213 -3.7976 -0.7929 -10.7097 3.9551 3.0489 7.3124 -10.0091 -40.6679 -16.7057 -45.1402 -0.0117 0.0800 -129.7455 4.2914 4.1260 -8.9460 -15.7817 10.6975 15.8679 -60.3894 1.7644 2.2931 19.0859 8.7112 17.0786 60.2052 -31.1824 -33.4083 -0.2772 -0.0159 99.8690 -43.1027 -15.1645 4.0263 15.1053 7.2872 -15.8493 49.9490 -3.5107 -5.0810 20.9844 -30.0956 23.1256 -0.9234 49.6171 -1.5140 -29.1163 -19.3320 1.7304 1.6445 -1.7664 -1.8752 -14.9911 -56.9915 -22.9370 0.5226 57.4785 0.7890 9.2710 -3.5685 -15.6066 -1.4308 0.7925 1.1673
-4.4337 84.4181 2.3648 4.0432 4.2334 -0.3983 0.5454 8.2207 -0.2346 -0.6216 -1.4001 -1.0641 1.2697 12.9577 -2.5932 20.6478 10.5989 -3.5971 -3.3774 -4.0924 -10.1301 6.3163 -7.9492 -15.2485 -0.0323 -0.0632 0.1083 0.7556 -10.7223 -3.7786 -0.7917 -10.7075 3.9691 2.8151 7.3771 -9.7287 -41.0324 -16.4992 -45.1122 0.0728 0.0780 -129.8947 4.3209 4.2917 -9.0737 -15.7966 10.6892 15.8622 -60.4198 1.7663 2.2606 19.1753 8.8482 17.3086 60.5817 -31.4863 -33.6876 -0.1850 0.0109 99.7565 -43.5267 -15.8168 4.7321 15.0989 7.2426 -15.8059 49.8472 -3.4907 -5.0388 21.0204 -30.0294 23.0442 -0.8972 50.3743 -1.5006 -28.8557 -19.9190 2.0321 1.6405 -1.7270 -1.8717 -15.4492 -56.7909 -22.4784 0.5103 57.3395 0.7807 9.3833 -3.1771 -15.5294 -1.4298 0.8343 1.1692
-4.0425 84.3576 2.3015 3.9028 3.9756 -0.6848 0.6103 8.2455 -0.1861 -0.5885 -1.3940 -1.0143 1.3511 13.0975 -2.5379 20.4191 10.7735 -3.5428 -3.3437 -4.1001 -10.0670 6.3794 -7.9992 -15.2072 -0.0361 -0.0686 0.1142 0.7484 -10.7272 -3.7738 -0.7915 -10.7128 3.9764 2.6770 7.4622 -9.4839 -41.3710 -16.2937 -45.0385 0.1131 0.0854 -130.0351 4.3556 4.5469 -9.1621 -15.7793 10.6845 15.8448 -60.4658 1.7848 2.2302 19.2271 8.9415 17.4986 60.8930 -31.6696 -33.8385 -0.1163 -0.0224 99.6398 -43.8135 -16.3203 5.3260 15.0935 7.2176 -15.7682 49.7844 -3.4657 -5.0045 20.9898 -29.9364 22.9756 -0.8709 51.0521 -1.4827 -28.5917 -20.4908 2.3816 1.6384 -1.6560 -1.8697 -15.7666 -56.5617 -22.0877 0.5222 57.0095 0.8059 9.4851 -2.6897 -15.4934 -1.4311 0.8649 1.1726
